<?xml version="1.0" encoding="UTF-8"?>
<svg xmlns="http://www.w3.org/2000/svg" width="1280" height="720" viewBox="0 0 1280 720">
  <defs>
    <linearGradient id="bg" x1="0" y1="0" x2="1" y2="1">
      <stop offset="0%" stop-color="#070B16"/>
      <stop offset="55%" stop-color="#0B1224"/>
      <stop offset="100%" stop-color="#12103A"/>
    </linearGradient>
    <linearGradient id="cyan" x1="0" y1="0" x2="1" y2="0">
      <stop offset="0%" stop-color="#22D3EE"/>
      <stop offset="100%" stop-color="#818CF8"/>
    </linearGradient>
    <linearGradient id="card" x1="0" y1="0" x2="0" y2="1">
      <stop offset="0%" stop-color="#111827" stop-opacity="0.95"/>
      <stop offset="100%" stop-color="#0F172A" stop-opacity="0.95"/>
    </linearGradient>
    <filter id="glow" x="-50%" y="-50%" width="200%" height="200%">
      <feGaussianBlur stdDeviation="8" result="b"/>
      <feMerge><feMergeNode in="b"/><feMergeNode in="SourceGraphic"/></feMerge>
    </filter>
  </defs>
  <rect width="1280" height="720" fill="url(#bg)"/>
  <!-- grid dots -->
  <g fill="#334155" opacity="0.35">
    <circle cx="40" cy="40" r="1.2"/><circle cx="76" cy="40" r="1.2"/><circle cx="112" cy="40" r="1.2"/><circle cx="148" cy="40" r="1.2"/><circle cx="184" cy="40" r="1.2"/><circle cx="220" cy="40" r="1.2"/><circle cx="256" cy="40" r="1.2"/><circle cx="292" cy="40" r="1.2"/><circle cx="328" cy="40" r="1.2"/><circle cx="364" cy="40" r="1.2"/><circle cx="400" cy="40" r="1.2"/><circle cx="436" cy="40" r="1.2"/><circle cx="472" cy="40" r="1.2"/><circle cx="508" cy="40" r="1.2"/><circle cx="544" cy="40" r="1.2"/><circle cx="580" cy="40" r="1.2"/><circle cx="616" cy="40" r="1.2"/><circle cx="652" cy="40" r="1.2"/><circle cx="688" cy="40" r="1.2"/><circle cx="724" cy="40" r="1.2"/><circle cx="760" cy="40" r="1.2"/><circle cx="796" cy="40" r="1.2"/><circle cx="832" cy="40" r="1.2"/><circle cx="868" cy="40" r="1.2"/><circle cx="904" cy="40" r="1.2"/><circle cx="940" cy="40" r="1.2"/><circle cx="976" cy="40" r="1.2"/><circle cx="1012" cy="40" r="1.2"/><circle cx="1048" cy="40" r="1.2"/><circle cx="1084" cy="40" r="1.2"/><circle cx="1120" cy="40" r="1.2"/><circle cx="1156" cy="40" r="1.2"/><circle cx="1192" cy="40" r="1.2"/><circle cx="1228" cy="40" r="1.2"/><circle cx="40" cy="76" r="1.2"/><circle cx="76" cy="76" r="1.2"/><circle cx="112" cy="76" r="1.2"/><circle cx="148" cy="76" r="1.2"/><circle cx="184" cy="76" r="1.2"/><circle cx="220" cy="76" r="1.2"/><circle cx="256" cy="76" r="1.2"/><circle cx="292" cy="76" r="1.2"/><circle cx="328" cy="76" r="1.2"/><circle cx="364" cy="76" r="1.2"/><circle cx="400" cy="76" r="1.2"/><circle cx="436" cy="76" r="1.2"/><circle cx="472" cy="76" r="1.2"/><circle cx="508" cy="76" r="1.2"/><circle cx="544" cy="76" r="1.2"/><circle cx="580" cy="76" r="1.2"/><circle cx="616" cy="76" r="1.2"/><circle cx="652" cy="76" r="1.2"/><circle cx="688" cy="76" r="1.2"/><circle cx="724" cy="76" r="1.2"/><circle cx="760" cy="76" r="1.2"/><circle cx="796" cy="76" r="1.2"/><circle cx="832" cy="76" r="1.2"/><circle cx="868" cy="76" r="1.2"/><circle cx="904" cy="76" r="1.2"/><circle cx="940" cy="76" r="1.2"/><circle cx="976" cy="76" r="1.2"/><circle cx="1012" cy="76" r="1.2"/><circle cx="1048" cy="76" r="1.2"/><circle cx="1084" cy="76" r="1.2"/><circle cx="1120" cy="76" r="1.2"/><circle cx="1156" cy="76" r="1.2"/><circle cx="1192" cy="76" r="1.2"/><circle cx="1228" cy="76" r="1.2"/><circle cx="40" cy="112" r="1.2"/><circle cx="76" cy="112" r="1.2"/><circle cx="112" cy="112" r="1.2"/><circle cx="148" cy="112" r="1.2"/><circle cx="184" cy="112" r="1.2"/><circle cx="220" cy="112" r="1.2"/><circle cx="256" cy="112" r="1.2"/><circle cx="292" cy="112" r="1.2"/><circle cx="328" cy="112" r="1.2"/><circle cx="364" cy="112" r="1.2"/><circle cx="400" cy="112" r="1.2"/><circle cx="436" cy="112" r="1.2"/><circle cx="472" cy="112" r="1.2"/><circle cx="508" cy="112" r="1.2"/><circle cx="544" cy="112" r="1.2"/><circle cx="580" cy="112" r="1.2"/><circle cx="616" cy="112" r="1.2"/><circle cx="652" cy="112" r="1.2"/><circle cx="688" cy="112" r="1.2"/><circle cx="724" cy="112" r="1.2"/><circle cx="760" cy="112" r="1.2"/><circle cx="796" cy="112" r="1.2"/><circle cx="832" cy="112" r="1.2"/><circle cx="868" cy="112" r="1.2"/><circle cx="904" cy="112" r="1.2"/><circle cx="940" cy="112" r="1.2"/><circle cx="976" cy="112" r="1.2"/><circle cx="1012" cy="112" r="1.2"/><circle cx="1048" cy="112" r="1.2"/><circle cx="1084" cy="112" r="1.2"/><circle cx="1120" cy="112" r="1.2"/><circle cx="1156" cy="112" r="1.2"/><circle cx="1192" cy="112" r="1.2"/><circle cx="1228" cy="112" r="1.2"/><circle cx="40" cy="148" r="1.2"/><circle cx="76" cy="148" r="1.2"/><circle cx="112" cy="148" r="1.2"/><circle cx="148" cy="148" r="1.2"/><circle cx="184" cy="148" r="1.2"/><circle cx="220" cy="148" r="1.2"/><circle cx="256" cy="148" r="1.2"/><circle cx="292" cy="148" r="1.2"/><circle cx="328" cy="148" r="1.2"/><circle cx="364" cy="148" r="1.2"/><circle cx="400" cy="148" r="1.2"/><circle cx="436" cy="148" r="1.2"/><circle cx="472" cy="148" r="1.2"/><circle cx="508" cy="148" r="1.2"/><circle cx="544" cy="148" r="1.2"/><circle cx="580" cy="148" r="1.2"/><circle cx="616" cy="148" r="1.2"/><circle cx="652" cy="148" r="1.2"/><circle cx="688" cy="148" r="1.2"/><circle cx="724" cy="148" r="1.2"/><circle cx="760" cy="148" r="1.2"/><circle cx="796" cy="148" r="1.2"/><circle cx="832" cy="148" r="1.2"/><circle cx="868" cy="148" r="1.2"/><circle cx="904" cy="148" r="1.2"/><circle cx="940" cy="148" r="1.2"/><circle cx="976" cy="148" r="1.2"/><circle cx="1012" cy="148" r="1.2"/><circle cx="1048" cy="148" r="1.2"/><circle cx="1084" cy="148" r="1.2"/><circle cx="1120" cy="148" r="1.2"/><circle cx="1156" cy="148" r="1.2"/><circle cx="1192" cy="148" r="1.2"/><circle cx="1228" cy="148" r="1.2"/><circle cx="40" cy="184" r="1.2"/><circle cx="76" cy="184" r="1.2"/><circle cx="112" cy="184" r="1.2"/><circle cx="148" cy="184" r="1.2"/><circle cx="184" cy="184" r="1.2"/><circle cx="220" cy="184" r="1.2"/><circle cx="256" cy="184" r="1.2"/><circle cx="292" cy="184" r="1.2"/><circle cx="328" cy="184" r="1.2"/><circle cx="364" cy="184" r="1.2"/><circle cx="400" cy="184" r="1.2"/><circle cx="436" cy="184" r="1.2"/><circle cx="472" cy="184" r="1.2"/><circle cx="508" cy="184" r="1.2"/><circle cx="544" cy="184" r="1.2"/><circle cx="580" cy="184" r="1.2"/><circle cx="616" cy="184" r="1.2"/><circle cx="652" cy="184" r="1.2"/><circle cx="688" cy="184" r="1.2"/><circle cx="724" cy="184" r="1.2"/><circle cx="760" cy="184" r="1.2"/><circle cx="796" cy="184" r="1.2"/><circle cx="832" cy="184" r="1.2"/><circle cx="868" cy="184" r="1.2"/><circle cx="904" cy="184" r="1.2"/><circle cx="940" cy="184" r="1.2"/><circle cx="976" cy="184" r="1.2"/><circle cx="1012" cy="184" r="1.2"/><circle cx="1048" cy="184" r="1.2"/><circle cx="1084" cy="184" r="1.2"/><circle cx="1120" cy="184" r="1.2"/><circle cx="1156" cy="184" r="1.2"/><circle cx="1192" cy="184" r="1.2"/><circle cx="1228" cy="184" r="1.2"/><circle cx="40" cy="220" r="1.2"/><circle cx="76" cy="220" r="1.2"/><circle cx="112" cy="220" r="1.2"/><circle cx="148" cy="220" r="1.2"/><circle cx="184" cy="220" r="1.2"/><circle cx="220" cy="220" r="1.2"/><circle cx="256" cy="220" r="1.2"/><circle cx="292" cy="220" r="1.2"/><circle cx="328" cy="220" r="1.2"/><circle cx="364" cy="220" r="1.2"/><circle cx="400" cy="220" r="1.2"/><circle cx="436" cy="220" r="1.2"/><circle cx="472" cy="220" r="1.2"/><circle cx="508" cy="220" r="1.2"/><circle cx="544" cy="220" r="1.2"/><circle cx="580" cy="220" r="1.2"/><circle cx="616" cy="220" r="1.2"/><circle cx="652" cy="220" r="1.2"/><circle cx="688" cy="220" r="1.2"/><circle cx="724" cy="220" r="1.2"/><circle cx="760" cy="220" r="1.2"/><circle cx="796" cy="220" r="1.2"/><circle cx="832" cy="220" r="1.2"/><circle cx="868" cy="220" r="1.2"/><circle cx="904" cy="220" r="1.2"/><circle cx="940" cy="220" r="1.2"/><circle cx="976" cy="220" r="1.2"/><circle cx="1012" cy="220" r="1.2"/><circle cx="1048" cy="220" r="1.2"/><circle cx="1084" cy="220" r="1.2"/><circle cx="1120" cy="220" r="1.2"/><circle cx="1156" cy="220" r="1.2"/><circle cx="1192" cy="220" r="1.2"/><circle cx="1228" cy="220" r="1.2"/><circle cx="40" cy="256" r="1.2"/><circle cx="76" cy="256" r="1.2"/><circle cx="112" cy="256" r="1.2"/><circle cx="148" cy="256" r="1.2"/><circle cx="184" cy="256" r="1.2"/><circle cx="220" cy="256" r="1.2"/><circle cx="256" cy="256" r="1.2"/><circle cx="292" cy="256" r="1.2"/><circle cx="328" cy="256" r="1.2"/><circle cx="364" cy="256" r="1.2"/><circle cx="400" cy="256" r="1.2"/><circle cx="436" cy="256" r="1.2"/><circle cx="472" cy="256" r="1.2"/><circle cx="508" cy="256" r="1.2"/><circle cx="544" cy="256" r="1.2"/><circle cx="580" cy="256" r="1.2"/><circle cx="616" cy="256" r="1.2"/><circle cx="652" cy="256" r="1.2"/><circle cx="688" cy="256" r="1.2"/><circle cx="724" cy="256" r="1.2"/><circle cx="760" cy="256" r="1.2"/><circle cx="796" cy="256" r="1.2"/><circle cx="832" cy="256" r="1.2"/><circle cx="868" cy="256" r="1.2"/><circle cx="904" cy="256" r="1.2"/><circle cx="940" cy="256" r="1.2"/><circle cx="976" cy="256" r="1.2"/><circle cx="1012" cy="256" r="1.2"/><circle cx="1048" cy="256" r="1.2"/><circle cx="1084" cy="256" r="1.2"/><circle cx="1120" cy="256" r="1.2"/><circle cx="1156" cy="256" r="1.2"/><circle cx="1192" cy="256" r="1.2"/><circle cx="1228" cy="256" r="1.2"/><circle cx="40" cy="292" r="1.2"/><circle cx="76" cy="292" r="1.2"/><circle cx="112" cy="292" r="1.2"/><circle cx="148" cy="292" r="1.2"/><circle cx="184" cy="292" r="1.2"/><circle cx="220" cy="292" r="1.2"/><circle cx="256" cy="292" r="1.2"/><circle cx="292" cy="292" r="1.2"/><circle cx="328" cy="292" r="1.2"/><circle cx="364" cy="292" r="1.2"/><circle cx="400" cy="292" r="1.2"/><circle cx="436" cy="292" r="1.2"/><circle cx="472" cy="292" r="1.2"/><circle cx="508" cy="292" r="1.2"/><circle cx="544" cy="292" r="1.2"/><circle cx="580" cy="292" r="1.2"/><circle cx="616" cy="292" r="1.2"/><circle cx="652" cy="292" r="1.2"/><circle cx="688" cy="292" r="1.2"/><circle cx="724" cy="292" r="1.2"/><circle cx="760" cy="292" r="1.2"/><circle cx="796" cy="292" r="1.2"/><circle cx="832" cy="292" r="1.2"/><circle cx="868" cy="292" r="1.2"/><circle cx="904" cy="292" r="1.2"/><circle cx="940" cy="292" r="1.2"/><circle cx="976" cy="292" r="1.2"/><circle cx="1012" cy="292" r="1.2"/><circle cx="1048" cy="292" r="1.2"/><circle cx="1084" cy="292" r="1.2"/><circle cx="1120" cy="292" r="1.2"/><circle cx="1156" cy="292" r="1.2"/><circle cx="1192" cy="292" r="1.2"/><circle cx="1228" cy="292" r="1.2"/><circle cx="40" cy="328" r="1.2"/><circle cx="76" cy="328" r="1.2"/><circle cx="112" cy="328" r="1.2"/><circle cx="148" cy="328" r="1.2"/><circle cx="184" cy="328" r="1.2"/><circle cx="220" cy="328" r="1.2"/><circle cx="256" cy="328" r="1.2"/><circle cx="292" cy="328" r="1.2"/><circle cx="328" cy="328" r="1.2"/><circle cx="364" cy="328" r="1.2"/><circle cx="400" cy="328" r="1.2"/><circle cx="436" cy="328" r="1.2"/><circle cx="472" cy="328" r="1.2"/><circle cx="508" cy="328" r="1.2"/><circle cx="544" cy="328" r="1.2"/><circle cx="580" cy="328" r="1.2"/><circle cx="616" cy="328" r="1.2"/><circle cx="652" cy="328" r="1.2"/><circle cx="688" cy="328" r="1.2"/><circle cx="724" cy="328" r="1.2"/><circle cx="760" cy="328" r="1.2"/><circle cx="796" cy="328" r="1.2"/><circle cx="832" cy="328" r="1.2"/><circle cx="868" cy="328" r="1.2"/><circle cx="904" cy="328" r="1.2"/><circle cx="940" cy="328" r="1.2"/><circle cx="976" cy="328" r="1.2"/><circle cx="1012" cy="328" r="1.2"/><circle cx="1048" cy="328" r="1.2"/><circle cx="1084" cy="328" r="1.2"/><circle cx="1120" cy="328" r="1.2"/><circle cx="1156" cy="328" r="1.2"/><circle cx="1192" cy="328" r="1.2"/><circle cx="1228" cy="328" r="1.2"/><circle cx="40" cy="364" r="1.2"/><circle cx="76" cy="364" r="1.2"/><circle cx="112" cy="364" r="1.2"/><circle cx="148" cy="364" r="1.2"/><circle cx="184" cy="364" r="1.2"/><circle cx="220" cy="364" r="1.2"/><circle cx="256" cy="364" r="1.2"/><circle cx="292" cy="364" r="1.2"/><circle cx="328" cy="364" r="1.2"/><circle cx="364" cy="364" r="1.2"/><circle cx="400" cy="364" r="1.2"/><circle cx="436" cy="364" r="1.2"/><circle cx="472" cy="364" r="1.2"/><circle cx="508" cy="364" r="1.2"/><circle cx="544" cy="364" r="1.2"/><circle cx="580" cy="364" r="1.2"/><circle cx="616" cy="364" r="1.2"/><circle cx="652" cy="364" r="1.2"/><circle cx="688" cy="364" r="1.2"/><circle cx="724" cy="364" r="1.2"/><circle cx="760" cy="364" r="1.2"/><circle cx="796" cy="364" r="1.2"/><circle cx="832" cy="364" r="1.2"/><circle cx="868" cy="364" r="1.2"/><circle cx="904" cy="364" r="1.2"/><circle cx="940" cy="364" r="1.2"/><circle cx="976" cy="364" r="1.2"/><circle cx="1012" cy="364" r="1.2"/><circle cx="1048" cy="364" r="1.2"/><circle cx="1084" cy="364" r="1.2"/><circle cx="1120" cy="364" r="1.2"/><circle cx="1156" cy="364" r="1.2"/><circle cx="1192" cy="364" r="1.2"/><circle cx="1228" cy="364" r="1.2"/><circle cx="40" cy="400" r="1.2"/><circle cx="76" cy="400" r="1.2"/><circle cx="112" cy="400" r="1.2"/><circle cx="148" cy="400" r="1.2"/><circle cx="184" cy="400" r="1.2"/><circle cx="220" cy="400" r="1.2"/><circle cx="256" cy="400" r="1.2"/><circle cx="292" cy="400" r="1.2"/><circle cx="328" cy="400" r="1.2"/><circle cx="364" cy="400" r="1.2"/><circle cx="400" cy="400" r="1.2"/><circle cx="436" cy="400" r="1.2"/><circle cx="472" cy="400" r="1.2"/><circle cx="508" cy="400" r="1.2"/><circle cx="544" cy="400" r="1.2"/><circle cx="580" cy="400" r="1.2"/><circle cx="616" cy="400" r="1.2"/><circle cx="652" cy="400" r="1.2"/><circle cx="688" cy="400" r="1.2"/><circle cx="724" cy="400" r="1.2"/><circle cx="760" cy="400" r="1.2"/><circle cx="796" cy="400" r="1.2"/><circle cx="832" cy="400" r="1.2"/><circle cx="868" cy="400" r="1.2"/><circle cx="904" cy="400" r="1.2"/><circle cx="940" cy="400" r="1.2"/><circle cx="976" cy="400" r="1.2"/><circle cx="1012" cy="400" r="1.2"/><circle cx="1048" cy="400" r="1.2"/><circle cx="1084" cy="400" r="1.2"/><circle cx="1120" cy="400" r="1.2"/><circle cx="1156" cy="400" r="1.2"/><circle cx="1192" cy="400" r="1.2"/><circle cx="1228" cy="400" r="1.2"/><circle cx="40" cy="436" r="1.2"/><circle cx="76" cy="436" r="1.2"/><circle cx="112" cy="436" r="1.2"/><circle cx="148" cy="436" r="1.2"/><circle cx="184" cy="436" r="1.2"/><circle cx="220" cy="436" r="1.2"/><circle cx="256" cy="436" r="1.2"/><circle cx="292" cy="436" r="1.2"/><circle cx="328" cy="436" r="1.2"/><circle cx="364" cy="436" r="1.2"/><circle cx="400" cy="436" r="1.2"/><circle cx="436" cy="436" r="1.2"/><circle cx="472" cy="436" r="1.2"/><circle cx="508" cy="436" r="1.2"/><circle cx="544" cy="436" r="1.2"/><circle cx="580" cy="436" r="1.2"/><circle cx="616" cy="436" r="1.2"/><circle cx="652" cy="436" r="1.2"/><circle cx="688" cy="436" r="1.2"/><circle cx="724" cy="436" r="1.2"/><circle cx="760" cy="436" r="1.2"/><circle cx="796" cy="436" r="1.2"/><circle cx="832" cy="436" r="1.2"/><circle cx="868" cy="436" r="1.2"/><circle cx="904" cy="436" r="1.2"/><circle cx="940" cy="436" r="1.2"/><circle cx="976" cy="436" r="1.2"/><circle cx="1012" cy="436" r="1.2"/><circle cx="1048" cy="436" r="1.2"/><circle cx="1084" cy="436" r="1.2"/><circle cx="1120" cy="436" r="1.2"/><circle cx="1156" cy="436" r="1.2"/><circle cx="1192" cy="436" r="1.2"/><circle cx="1228" cy="436" r="1.2"/><circle cx="40" cy="472" r="1.2"/><circle cx="76" cy="472" r="1.2"/><circle cx="112" cy="472" r="1.2"/><circle cx="148" cy="472" r="1.2"/><circle cx="184" cy="472" r="1.2"/><circle cx="220" cy="472" r="1.2"/><circle cx="256" cy="472" r="1.2"/><circle cx="292" cy="472" r="1.2"/><circle cx="328" cy="472" r="1.2"/><circle cx="364" cy="472" r="1.2"/><circle cx="400" cy="472" r="1.2"/><circle cx="436" cy="472" r="1.2"/><circle cx="472" cy="472" r="1.2"/><circle cx="508" cy="472" r="1.2"/><circle cx="544" cy="472" r="1.2"/><circle cx="580" cy="472" r="1.2"/><circle cx="616" cy="472" r="1.2"/><circle cx="652" cy="472" r="1.2"/><circle cx="688" cy="472" r="1.2"/><circle cx="724" cy="472" r="1.2"/><circle cx="760" cy="472" r="1.2"/><circle cx="796" cy="472" r="1.2"/><circle cx="832" cy="472" r="1.2"/><circle cx="868" cy="472" r="1.2"/><circle cx="904" cy="472" r="1.2"/><circle cx="940" cy="472" r="1.2"/><circle cx="976" cy="472" r="1.2"/><circle cx="1012" cy="472" r="1.2"/><circle cx="1048" cy="472" r="1.2"/><circle cx="1084" cy="472" r="1.2"/><circle cx="1120" cy="472" r="1.2"/><circle cx="1156" cy="472" r="1.2"/><circle cx="1192" cy="472" r="1.2"/><circle cx="1228" cy="472" r="1.2"/><circle cx="40" cy="508" r="1.2"/><circle cx="76" cy="508" r="1.2"/><circle cx="112" cy="508" r="1.2"/><circle cx="148" cy="508" r="1.2"/><circle cx="184" cy="508" r="1.2"/><circle cx="220" cy="508" r="1.2"/><circle cx="256" cy="508" r="1.2"/><circle cx="292" cy="508" r="1.2"/><circle cx="328" cy="508" r="1.2"/><circle cx="364" cy="508" r="1.2"/><circle cx="400" cy="508" r="1.2"/><circle cx="436" cy="508" r="1.2"/><circle cx="472" cy="508" r="1.2"/><circle cx="508" cy="508" r="1.2"/><circle cx="544" cy="508" r="1.2"/><circle cx="580" cy="508" r="1.2"/><circle cx="616" cy="508" r="1.2"/><circle cx="652" cy="508" r="1.2"/><circle cx="688" cy="508" r="1.2"/><circle cx="724" cy="508" r="1.2"/><circle cx="760" cy="508" r="1.2"/><circle cx="796" cy="508" r="1.2"/><circle cx="832" cy="508" r="1.2"/><circle cx="868" cy="508" r="1.2"/><circle cx="904" cy="508" r="1.2"/><circle cx="940" cy="508" r="1.2"/><circle cx="976" cy="508" r="1.2"/><circle cx="1012" cy="508" r="1.2"/><circle cx="1048" cy="508" r="1.2"/><circle cx="1084" cy="508" r="1.2"/><circle cx="1120" cy="508" r="1.2"/><circle cx="1156" cy="508" r="1.2"/><circle cx="1192" cy="508" r="1.2"/><circle cx="1228" cy="508" r="1.2"/><circle cx="40" cy="544" r="1.2"/><circle cx="76" cy="544" r="1.2"/><circle cx="112" cy="544" r="1.2"/><circle cx="148" cy="544" r="1.2"/><circle cx="184" cy="544" r="1.2"/><circle cx="220" cy="544" r="1.2"/><circle cx="256" cy="544" r="1.2"/><circle cx="292" cy="544" r="1.2"/><circle cx="328" cy="544" r="1.2"/><circle cx="364" cy="544" r="1.2"/><circle cx="400" cy="544" r="1.2"/><circle cx="436" cy="544" r="1.2"/><circle cx="472" cy="544" r="1.2"/><circle cx="508" cy="544" r="1.2"/><circle cx="544" cy="544" r="1.2"/><circle cx="580" cy="544" r="1.2"/><circle cx="616" cy="544" r="1.2"/><circle cx="652" cy="544" r="1.2"/><circle cx="688" cy="544" r="1.2"/><circle cx="724" cy="544" r="1.2"/><circle cx="760" cy="544" r="1.2"/><circle cx="796" cy="544" r="1.2"/><circle cx="832" cy="544" r="1.2"/><circle cx="868" cy="544" r="1.2"/><circle cx="904" cy="544" r="1.2"/><circle cx="940" cy="544" r="1.2"/><circle cx="976" cy="544" r="1.2"/><circle cx="1012" cy="544" r="1.2"/><circle cx="1048" cy="544" r="1.2"/><circle cx="1084" cy="544" r="1.2"/><circle cx="1120" cy="544" r="1.2"/><circle cx="1156" cy="544" r="1.2"/><circle cx="1192" cy="544" r="1.2"/><circle cx="1228" cy="544" r="1.2"/><circle cx="40" cy="580" r="1.2"/><circle cx="76" cy="580" r="1.2"/><circle cx="112" cy="580" r="1.2"/><circle cx="148" cy="580" r="1.2"/><circle cx="184" cy="580" r="1.2"/><circle cx="220" cy="580" r="1.2"/><circle cx="256" cy="580" r="1.2"/><circle cx="292" cy="580" r="1.2"/><circle cx="328" cy="580" r="1.2"/><circle cx="364" cy="580" r="1.2"/><circle cx="400" cy="580" r="1.2"/><circle cx="436" cy="580" r="1.2"/><circle cx="472" cy="580" r="1.2"/><circle cx="508" cy="580" r="1.2"/><circle cx="544" cy="580" r="1.2"/><circle cx="580" cy="580" r="1.2"/><circle cx="616" cy="580" r="1.2"/><circle cx="652" cy="580" r="1.2"/><circle cx="688" cy="580" r="1.2"/><circle cx="724" cy="580" r="1.2"/><circle cx="760" cy="580" r="1.2"/><circle cx="796" cy="580" r="1.2"/><circle cx="832" cy="580" r="1.2"/><circle cx="868" cy="580" r="1.2"/><circle cx="904" cy="580" r="1.2"/><circle cx="940" cy="580" r="1.2"/><circle cx="976" cy="580" r="1.2"/><circle cx="1012" cy="580" r="1.2"/><circle cx="1048" cy="580" r="1.2"/><circle cx="1084" cy="580" r="1.2"/><circle cx="1120" cy="580" r="1.2"/><circle cx="1156" cy="580" r="1.2"/><circle cx="1192" cy="580" r="1.2"/><circle cx="1228" cy="580" r="1.2"/><circle cx="40" cy="616" r="1.2"/><circle cx="76" cy="616" r="1.2"/><circle cx="112" cy="616" r="1.2"/><circle cx="148" cy="616" r="1.2"/><circle cx="184" cy="616" r="1.2"/><circle cx="220" cy="616" r="1.2"/><circle cx="256" cy="616" r="1.2"/><circle cx="292" cy="616" r="1.2"/><circle cx="328" cy="616" r="1.2"/><circle cx="364" cy="616" r="1.2"/><circle cx="400" cy="616" r="1.2"/><circle cx="436" cy="616" r="1.2"/><circle cx="472" cy="616" r="1.2"/><circle cx="508" cy="616" r="1.2"/><circle cx="544" cy="616" r="1.2"/><circle cx="580" cy="616" r="1.2"/><circle cx="616" cy="616" r="1.2"/><circle cx="652" cy="616" r="1.2"/><circle cx="688" cy="616" r="1.2"/><circle cx="724" cy="616" r="1.2"/><circle cx="760" cy="616" r="1.2"/><circle cx="796" cy="616" r="1.2"/><circle cx="832" cy="616" r="1.2"/><circle cx="868" cy="616" r="1.2"/><circle cx="904" cy="616" r="1.2"/><circle cx="940" cy="616" r="1.2"/><circle cx="976" cy="616" r="1.2"/><circle cx="1012" cy="616" r="1.2"/><circle cx="1048" cy="616" r="1.2"/><circle cx="1084" cy="616" r="1.2"/><circle cx="1120" cy="616" r="1.2"/><circle cx="1156" cy="616" r="1.2"/><circle cx="1192" cy="616" r="1.2"/><circle cx="1228" cy="616" r="1.2"/><circle cx="40" cy="652" r="1.2"/><circle cx="76" cy="652" r="1.2"/><circle cx="112" cy="652" r="1.2"/><circle cx="148" cy="652" r="1.2"/><circle cx="184" cy="652" r="1.2"/><circle cx="220" cy="652" r="1.2"/><circle cx="256" cy="652" r="1.2"/><circle cx="292" cy="652" r="1.2"/><circle cx="328" cy="652" r="1.2"/><circle cx="364" cy="652" r="1.2"/><circle cx="400" cy="652" r="1.2"/><circle cx="436" cy="652" r="1.2"/><circle cx="472" cy="652" r="1.2"/><circle cx="508" cy="652" r="1.2"/><circle cx="544" cy="652" r="1.2"/><circle cx="580" cy="652" r="1.2"/><circle cx="616" cy="652" r="1.2"/><circle cx="652" cy="652" r="1.2"/><circle cx="688" cy="652" r="1.2"/><circle cx="724" cy="652" r="1.2"/><circle cx="760" cy="652" r="1.2"/><circle cx="796" cy="652" r="1.2"/><circle cx="832" cy="652" r="1.2"/><circle cx="868" cy="652" r="1.2"/><circle cx="904" cy="652" r="1.2"/><circle cx="940" cy="652" r="1.2"/><circle cx="976" cy="652" r="1.2"/><circle cx="1012" cy="652" r="1.2"/><circle cx="1048" cy="652" r="1.2"/><circle cx="1084" cy="652" r="1.2"/><circle cx="1120" cy="652" r="1.2"/><circle cx="1156" cy="652" r="1.2"/><circle cx="1192" cy="652" r="1.2"/><circle cx="1228" cy="652" r="1.2"/><circle cx="40" cy="688" r="1.2"/><circle cx="76" cy="688" r="1.2"/><circle cx="112" cy="688" r="1.2"/><circle cx="148" cy="688" r="1.2"/><circle cx="184" cy="688" r="1.2"/><circle cx="220" cy="688" r="1.2"/><circle cx="256" cy="688" r="1.2"/><circle cx="292" cy="688" r="1.2"/><circle cx="328" cy="688" r="1.2"/><circle cx="364" cy="688" r="1.2"/><circle cx="400" cy="688" r="1.2"/><circle cx="436" cy="688" r="1.2"/><circle cx="472" cy="688" r="1.2"/><circle cx="508" cy="688" r="1.2"/><circle cx="544" cy="688" r="1.2"/><circle cx="580" cy="688" r="1.2"/><circle cx="616" cy="688" r="1.2"/><circle cx="652" cy="688" r="1.2"/><circle cx="688" cy="688" r="1.2"/><circle cx="724" cy="688" r="1.2"/><circle cx="760" cy="688" r="1.2"/><circle cx="796" cy="688" r="1.2"/><circle cx="832" cy="688" r="1.2"/><circle cx="868" cy="688" r="1.2"/><circle cx="904" cy="688" r="1.2"/><circle cx="940" cy="688" r="1.2"/><circle cx="976" cy="688" r="1.2"/><circle cx="1012" cy="688" r="1.2"/><circle cx="1048" cy="688" r="1.2"/><circle cx="1084" cy="688" r="1.2"/><circle cx="1120" cy="688" r="1.2"/><circle cx="1156" cy="688" r="1.2"/><circle cx="1192" cy="688" r="1.2"/><circle cx="1228" cy="688" r="1.2"/>
  </g>
  <!-- left accent bar -->
  <rect x="0" y="0" width="10" height="720" fill="url(#cyan)"/>
  <!-- eyebrow -->
  <text x="72" y="96" fill="#67E8F9" font-family="ui-sans-serif, system-ui, sans-serif" font-size="22" letter-spacing="4" font-weight="600">ACP SDK MIGRATION</text>
  <!-- title -->
  <text x="72" y="180" fill="#F8FAFC" font-family="ui-sans-serif, system-ui, sans-serif" font-size="72" font-weight="800">v2  →  v3</text>
  <text x="72" y="240" fill="#CBD5E1" font-family="ui-sans-serif, system-ui, sans-serif" font-size="28">AcpClient callbacks  →  AcpAgent entry events</text>
  <text x="72" y="286" fill="#94A3B8" font-family="ui-sans-serif, system-ui, sans-serif" font-size="22">FareAmount  →  AssetToken · memos  →  hooks · multi-chain</text>

  <!-- v2 card -->
  <rect x="72" y="360" width="480" height="260" rx="18" fill="url(#card)" stroke="#334155" stroke-width="2"/>
  <text x="100" y="410" fill="#F87171" font-family="ui-monospace, monospace" font-size="20" font-weight="700">BEFORE · v2</text>
  <text x="100" y="460" fill="#E2E8F0" font-family="ui-monospace, monospace" font-size="20">onNewTask(job, memo)</text>
  <text x="100" y="500" fill="#E2E8F0" font-family="ui-monospace, monospace" font-size="20">onEvaluate(job)</text>
  <text x="100" y="540" fill="#94A3B8" font-family="ui-monospace, monospace" font-size="18">job.accept / deliver / evaluate</text>
  <text x="100" y="580" fill="#64748B" font-family="ui-monospace, monospace" font-size="16">phase-based · single-chain session</text>

  <!-- v3 card -->
  <rect x="600" y="360" width="600" height="260" rx="18" fill="url(#card)" stroke="#22D3EE" stroke-width="2" filter="url(#glow)"/>
  <text x="632" y="410" fill="#22D3EE" font-family="ui-monospace, monospace" font-size="20" font-weight="700">AFTER · v3</text>
  <text x="632" y="460" fill="#E2E8F0" font-family="ui-monospace, monospace" font-size="20">agent.on("entry", handler)</text>
  <text x="632" y="500" fill="#A5B4FC" font-family="ui-monospace, monospace" font-size="18">created → funded → submitted → done</text>
  <text x="632" y="540" fill="#94A3B8" font-family="ui-monospace, monospace" font-size="18">session.setBudget / fund / submit / complete</text>
  <text x="632" y="580" fill="#67E8F9" font-family="ui-monospace, monospace" font-size="16">AcpAgent.create · AssetToken.usdc · hooks</text>

  <!-- arrow -->
  <path d="M560 490 L590 490" stroke="#22D3EE" stroke-width="4" stroke-linecap="round"/>
  <path d="M580 475 L595 490 L580 505" fill="none" stroke="#22D3EE" stroke-width="4" stroke-linecap="round" stroke-linejoin="round"/>
</svg>
